<?xml version="1.0" encoding="UTF-8"?>
<svg id="Layer_1" data-name="Layer 1" xmlns="http://www.w3.org/2000/svg" viewBox="0 0 82.609 68.26">
  <circle cx="28.674" cy="6.21" r="6.21"/>
  <path d="M0,18.775s10.938-9.981,10.938-9.981c1.256,2.665,3.024,5.225,5.074,7.333,3.556,3.656,8.708,4.542,13.467,2.975,3.384-1.114,6.086-3.494,8.828-5.671,9.758-7.75,25.203-5.955,33.313,3.346,4.47,5.126,6.092,12.217,5.588,18.888-.048.638-.105,1.282-.22,1.912,0,0-18.425-7.29-18.452-7.301-.004-.001.32-2.725.337-2.919.204-2.441.2-5.032-.863-7.318-.999-2.148-2.848-3.924-4.987-4.922-.799-.373-1.646-.641-2.514-.795-5.933-1.054-10.891,3.549-15.07,7.059-3.379,2.837-7.081,5.754-11.478,6.933-7.708,2.066-19.861-.627-23.96-9.539Z"/>
  <path d="M50.535,47.845l-1.577,15.717s-24.567-8.98-24.567-26.962c0-8.041,15.732-10.798,19.851-8.255,8.432,5.205,16.968,9.577,38.366,25.784l-10.696,14.131L39.155,29.958s-5.863-1.218-5.863,5.471,8.265,12.416,17.243,12.416Z"/>
</svg>