<?xml version="1.0" encoding="UTF-8"?>
<svg id="Layer_1" data-name="Layer 1" xmlns="http://www.w3.org/2000/svg" viewBox="0 0 449.609 68.26">
  <path d="M99.312,60.465V5.573c0-.657.533-1.19,1.19-1.19h22.888c19.759,0,29.113,10.977,29.113,28.159,0,17.086-10.5,29.114-28.923,29.114h-23.079c-.657,0-1.19-.533-1.19-1.19ZM110.194,51.301c0,.657.533,1.19,1.19,1.19h11.148c13.363,0,19.186-7.445,19.186-19.95s-6.109-18.995-19.759-18.995h-10.575c-.657,0-1.19.533-1.19,1.19v36.565Z"/>
  <path d="M219.244,5.427v44.876c.074.596.58,1.044,1.181,1.044h28.584c.657,0,1.19.533,1.19,1.19v7.929c0,.657-.533,1.19-1.19,1.19h-39.466c-.599,0-1.105-.445-1.181-1.04l.01-54.892c-.091-.711.464-1.341,1.181-1.341h8.51c.601,0,1.107.448,1.181,1.044Z"/>
  <path d="M274.349,61.655h-8.501c-.657,0-1.19-.533-1.19-1.19V5.573c0-.657.533-1.19,1.19-1.19h37.137c.657,0,1.19.533,1.19,1.19v7.929c0,.657-.533,1.19-1.19,1.19h-26.256c-.657,0-1.19.533-1.19,1.19v12.797c0,.657.533,1.19,1.19,1.19h23.488c.657,0,1.19.533,1.19,1.19v7.833c0,.657-.533,1.19-1.19,1.19h-23.488c-.657,0-1.19.533-1.19,1.19v19.192c0,.657-.533,1.19-1.19,1.19Z"/>
  <path d="M318.097,61.655h-8.501c-.657,0-1.19-.533-1.19-1.19V5.573c0-.657.533-1.19,1.19-1.19h8.501c.657,0,1.19.533,1.19,1.19v54.892c0,.657-.533,1.19-1.19,1.19Z"/>
  <path d="M385.633,61.655h-8.501c-.657,0-1.19-.533-1.19-1.19V5.573c0-.657.533-1.19,1.19-1.19h8.501c.657,0,1.19.533,1.19,1.19v54.892c0,.657-.533,1.19-1.19,1.19Z"/>
  <path d="M390.905,32.828c0-16.991,11.55-29.686,29.304-29.686,18.136,0,29.4,12.695,29.4,29.686,0,17.086-10.977,30.068-29.4,30.068-18.231,0-29.304-12.982-29.304-30.068ZM438.727,32.733c0-10.882-6.395-19.759-18.518-19.759-11.836,0-18.518,8.877-18.518,19.759,0,11.932,6.395,20.332,18.518,20.332,12.218,0,18.518-8.4,18.518-20.332Z"/>
  <path d="M324.242,40.56h8.572c.61,0,1.116.463,1.179,1.069.739,7.07,6.972,11.817,15.338,11.817,7.35,0,11.168-2.863,11.168-7.445,0-4.678-3.436-7.064-14.127-8.687-15.941-2.482-20.904-8.877-20.904-17.563,0-10.023,7.541-16.609,21.381-16.609,14.509,0,21.713,8.078,23.233,19.448.096.718-.456,1.361-1.181,1.361h-8.649c-.596,0-1.097-.442-1.176-1.033-.816-6.105-5.109-10.517-12.705-10.517-6.395,0-9.927,2.864-9.927,7.159,0,3.818,2.1,6.586,14.7,8.686,16.036,2.673,20.427,9.164,20.427,17.373,0,10.309-7.159,17.277-22.909,17.277-16.771-.184-24.748-9.177-25.611-21.048-.05-.694.494-1.288,1.189-1.288Z"/>
  <path d="M205.342,60.023l-19.953-49.88c-.693-1.74-1.888-3.176-3.374-4.18-1.479-1.004-3.261-1.577-5.135-1.577-3.749,0-7.116,2.278-8.509,5.758l-19.953,49.88c-.311.785.261,1.634,1.103,1.634h8.686c.388,0,.74-.195.959-.499l.005.004c.115-.16,11.489-15.362,28.832-16.368l1.213,3.247c.028.057.057.113.078.17l4.675,12.668c.17.467.615.778,1.11.778h9.153c.849,0,1.422-.849,1.111-1.634ZM167.012,40.605l2.044-5.331h.007l6.514-17.145c.389-1.033,1.853-1.018,2.228.021,1.641,4.548,3.586,9.294,5.376,13.722l.905,2.44.074.199c-6.613.894-12.365,3.27-17.149,6.094Z"/>
  <circle cx="28.674" cy="6.21" r="6.21"/>
  <path d="M0,18.775s10.938-9.981,10.938-9.981c1.256,2.665,3.024,5.225,5.074,7.333,3.556,3.656,8.708,4.542,13.467,2.975,3.384-1.114,6.086-3.494,8.828-5.671,9.758-7.75,25.203-5.955,33.313,3.346,4.47,5.126,6.092,12.217,5.588,18.888-.048.638-.105,1.282-.22,1.912,0,0-18.425-7.29-18.452-7.301-.004-.001.32-2.725.337-2.919.204-2.441.2-5.032-.863-7.318-.999-2.148-2.848-3.924-4.987-4.922-.799-.373-1.646-.641-2.514-.795-5.933-1.054-10.891,3.549-15.07,7.059-3.379,2.837-7.081,5.754-11.478,6.933-7.708,2.066-19.861-.627-23.96-9.539Z"/>
  <path d="M50.535,47.845l-1.577,15.717s-24.567-8.98-24.567-26.962c0-8.041,15.732-10.798,19.851-8.255,8.432,5.205,16.968,9.577,38.366,25.784l-10.696,14.131L39.155,29.958s-5.863-1.218-5.863,5.471,8.265,12.416,17.243,12.416Z"/>
</svg>