<svg xmlns="http://www.w3.org/2000/svg" data-name="Layer 1" viewBox="0 0 449.609 68.26"><path fill="#fff" d="M99.312 60.465V5.573c0-.657.533-1.19 1.19-1.19h22.888c19.759 0 29.113 10.977 29.113 28.159 0 17.086-10.5 29.114-28.923 29.114h-23.079a1.19 1.19 0 0 1-1.19-1.19Zm10.882-9.164c0 .657.533 1.19 1.19 1.19h11.148c13.363 0 19.186-7.445 19.186-19.95s-6.109-18.995-19.759-18.995h-10.575a1.19 1.19 0 0 0-1.19 1.19zM219.244 5.427v44.876a1.19 1.19 0 0 0 1.181 1.044h28.584c.657 0 1.19.533 1.19 1.19v7.929a1.19 1.19 0 0 1-1.19 1.19h-39.466a1.19 1.19 0 0 1-1.181-1.04l.01-54.892a1.19 1.19 0 0 1 1.181-1.341h8.51a1.19 1.19 0 0 1 1.181 1.044M274.349 61.655h-8.501a1.19 1.19 0 0 1-1.19-1.19V5.573c0-.657.533-1.19 1.19-1.19h37.137c.657 0 1.19.533 1.19 1.19v7.929a1.19 1.19 0 0 1-1.19 1.19h-26.256a1.19 1.19 0 0 0-1.19 1.19v12.797c0 .657.533 1.19 1.19 1.19h23.488c.657 0 1.19.533 1.19 1.19v7.833a1.19 1.19 0 0 1-1.19 1.19h-23.488a1.19 1.19 0 0 0-1.19 1.19v19.192a1.19 1.19 0 0 1-1.19 1.19ZM318.097 61.655h-8.501a1.19 1.19 0 0 1-1.19-1.19V5.573c0-.657.533-1.19 1.19-1.19h8.501c.657 0 1.19.533 1.19 1.19v54.892a1.19 1.19 0 0 1-1.19 1.19M385.633 61.655h-8.501a1.19 1.19 0 0 1-1.19-1.19V5.573c0-.657.533-1.19 1.19-1.19h8.501c.657 0 1.19.533 1.19 1.19v54.892a1.19 1.19 0 0 1-1.19 1.19M390.905 32.828c0-16.991 11.55-29.686 29.304-29.686 18.136 0 29.4 12.695 29.4 29.686 0 17.086-10.977 30.068-29.4 30.068-18.231 0-29.304-12.982-29.304-30.068m47.822-.095c0-10.882-6.395-19.759-18.518-19.759-11.836 0-18.518 8.877-18.518 19.759 0 11.932 6.395 20.332 18.518 20.332 12.218 0 18.518-8.4 18.518-20.332M324.242 40.56h8.572c.61 0 1.116.463 1.179 1.069.739 7.07 6.972 11.817 15.338 11.817 7.35 0 11.168-2.863 11.168-7.445 0-4.678-3.436-7.064-14.127-8.687-15.941-2.482-20.904-8.877-20.904-17.563 0-10.023 7.541-16.609 21.381-16.609 14.509 0 21.713 8.078 23.233 19.448a1.197 1.197 0 0 1-1.181 1.361h-8.649a1.19 1.19 0 0 1-1.176-1.033c-.816-6.105-5.109-10.517-12.705-10.517-6.395 0-9.927 2.864-9.927 7.159 0 3.818 2.1 6.586 14.7 8.686 16.036 2.673 20.427 9.164 20.427 17.373 0 10.309-7.159 17.277-22.909 17.277-16.771-.184-24.748-9.177-25.611-21.048a1.197 1.197 0 0 1 1.189-1.288ZM205.342 60.023l-19.953-49.88a9.1 9.1 0 0 0-3.374-4.18 9.16 9.16 0 0 0-13.644 4.181l-19.953 49.88a1.19 1.19 0 0 0 1.103 1.634h8.686c.388 0 .74-.195.959-.499l.005.004c.115-.16 11.489-15.362 28.832-16.368l1.213 3.247c.028.057.057.113.078.17l4.675 12.668c.17.467.615.778 1.11.778h9.153c.849 0 1.422-.849 1.111-1.634Zm-38.33-19.418 2.044-5.331h.007l6.514-17.145c.389-1.033 1.853-1.018 2.228.021 1.641 4.548 3.586 9.294 5.376 13.722l.905 2.44.074.199c-6.613.894-12.365 3.27-17.149 6.094Z"/><circle cx="28.674" cy="6.21" r="6.21" fill="#fff"/><path fill="#fff" d="m0 18.775 10.938-9.981a27.5 27.5 0 0 0 5.074 7.333c3.556 3.656 8.708 4.542 13.467 2.975 3.384-1.114 6.086-3.494 8.828-5.671 9.758-7.75 25.203-5.955 33.313 3.346 4.47 5.126 6.092 12.217 5.588 18.888a18 18 0 0 1-.22 1.912l-18.452-7.301c-.004-.001.32-2.725.337-2.919.204-2.441.2-5.032-.863-7.318-.999-2.148-2.848-3.924-4.987-4.922a10.1 10.1 0 0 0-2.514-.795c-5.933-1.054-10.891 3.549-15.07 7.059-3.379 2.837-7.081 5.754-11.478 6.933C16.253 30.38 4.1 27.687.001 18.775Z"/><path fill="#fff" d="m50.535 47.845-1.577 15.717S24.391 54.582 24.391 36.6c0-8.041 15.732-10.798 19.851-8.255 8.432 5.205 16.968 9.577 38.366 25.784L71.912 68.26 39.155 29.958s-5.863-1.218-5.863 5.471 8.265 12.416 17.243 12.416"/></svg>